<svg width="24" height="72" viewBox="0 0 24 72" fill="none" xmlns="http://www.w3.org/2000/svg">
<g clip-path="url(#clip0_112_94)">
<path d="M8 20C8 21.0609 8.42143 22.0783 9.17157 22.8284C9.92172 23.5786 10.9391 24 12 24C13.0609 24 14.0783 23.5786 14.8284 22.8284C15.5786 22.0783 16 21.0609 16 20C16 18.9391 15.5786 17.9217 14.8284 17.1716C14.0783 16.4214 13.0609 16 12 16C10.9391 16 9.92172 16.4214 9.17157 17.1716C8.42143 17.9217 8 18.9391 8 20Z" stroke="#FED0AA" stroke-width="2" stroke-linecap="round" stroke-linejoin="round"/>
<path d="M3 20H4M12 11V12M20 20H21M12 28V29M5.6 13.6L6.3 14.3M18.4 13.6L17.7 14.3M17.7 25.7L18.4 26.4M6.3 25.7L5.6 26.4" stroke="#FED0AA" stroke-width="2" stroke-linecap="round" stroke-linejoin="round"/>
</g>
<g clip-path="url(#clip1_112_94)">
<path d="M12 43C12.132 43 12.263 43 12.393 43C11.1084 44.1937 10.2826 45.7998 10.0593 47.5392C9.83602 49.2786 10.2293 51.0412 11.1708 52.5207C12.1122 54.0002 13.5424 55.103 15.2126 55.6375C16.8829 56.1719 18.6876 56.1042 20.313 55.446C19.6878 56.9505 18.6658 58.257 17.3562 59.2263C16.0466 60.1955 14.4985 60.791 12.8769 60.9494C11.2554 61.1077 9.62129 60.823 8.14892 60.1254C6.67654 59.4279 5.42114 58.3437 4.51661 56.9886C3.61209 55.6335 3.09238 54.0583 3.01291 52.431C2.93345 50.8037 3.29721 49.1853 4.0654 47.7485C4.83359 46.3117 5.97739 45.1104 7.37479 44.2727C8.77219 43.435 10.3708 42.9924 12 42.992V43Z" stroke="#423533" stroke-width="2" stroke-linecap="round" stroke-linejoin="round"/>
<path d="M17 44C17 44.5304 17.2107 45.0391 17.5858 45.4142C17.9609 45.7893 18.4696 46 19 46C18.4696 46 17.9609 46.2107 17.5858 46.5858C17.2107 46.9609 17 47.4696 17 48C17 47.4696 16.7893 46.9609 16.4142 46.5858C16.0391 46.2107 15.5304 46 15 46C15.5304 46 16.0391 45.7893 16.4142 45.4142C16.7893 45.0391 17 44.5304 17 44Z" stroke="#423533" stroke-width="2" stroke-linecap="round" stroke-linejoin="round"/>
<path d="M19 51H21M20 50V52" stroke="#423533" stroke-width="2" stroke-linecap="round" stroke-linejoin="round"/>
</g>
<defs>
<clipPath id="clip0_112_94">
<rect width="24" height="24" fill="white" transform="translate(0 8)"/>
</clipPath>
<clipPath id="clip1_112_94">
<rect width="24" height="24" fill="white" transform="translate(0 40)"/>
</clipPath>
</defs>
</svg>
