<svg xmlns="http://www.w3.org/2000/svg" viewBox="0 0 686.83 671.49"><defs><style>.cls-1{fill:#fd5d2c;}</style></defs><title>logo-orange</title><g id="Layer_2" data-name="Layer 2"><g id="Layer_1-2" data-name="Layer 1"><path class="cls-1" d="M412.3,671.48H274.52A37.48,37.48,0,0,1,239,621.94l54.52-160.33A37.46,37.46,0,0,1,329,436.2h28.75a37.47,37.47,0,0,1,35.48,25.41l54.51,160.33A37.47,37.47,0,0,1,412.3,671.48Z"/><path class="cls-1" d="M648.7,491.28,562.8,599A37.47,37.47,0,0,1,502,595.86L410.58,453.27a37.47,37.47,0,0,1,2.25-43.58l17.93-22.48a37.46,37.46,0,0,1,42-11.9l159.35,57.35A37.47,37.47,0,0,1,648.7,491.28Z"/><path class="cls-1" d="M655.2,194.1l30.67,134.33A37.47,37.47,0,0,1,645.47,374L477,356.58a37.47,37.47,0,0,1-32.67-28.93l-6.4-28a37.47,37.47,0,0,1,16.88-40.25L599,170.54A37.47,37.47,0,0,1,655.2,194.1Z"/><path class="cls-1" d="M426.9,3.74,551.05,63.51a37.48,37.48,0,0,1,10.47,60L442.85,244.35a37.48,37.48,0,0,1-43,7.51L374,239.38A37.45,37.45,0,0,1,353,201.1L373.45,33A37.47,37.47,0,0,1,426.9,3.74Z"/><path class="cls-1" d="M135.73,63.55,259.87,3.76A37.46,37.46,0,0,1,313.33,33L333.79,201.1a37.46,37.46,0,0,1-20.93,38.29L287,251.87a37.49,37.49,0,0,1-43-7.5L125.27,123.58A37.47,37.47,0,0,1,135.73,63.55Z"/><path class="cls-1" d="M1,328.49,31.6,194.16a37.48,37.48,0,0,1,56.19-23.58L232,259.39a37.49,37.49,0,0,1,16.88,40.25l-6.39,28a37.47,37.47,0,0,1-32.67,28.93L41.37,374.1A37.48,37.48,0,0,1,1,328.49Z"/><path class="cls-1" d="M124.07,599,38.15,491.33a37.47,37.47,0,0,1,16.6-58.62l159.34-57.37a37.46,37.46,0,0,1,42,11.89L274,409.7a37.48,37.48,0,0,1,2.26,43.58L184.92,595.89A37.47,37.47,0,0,1,124.07,599Z"/><path class="cls-1" d="M412.36,671.47l-137.78,0A37.47,37.47,0,0,1,239.09,622l54.49-160.34a37.47,37.47,0,0,1,35.48-25.42h28.75a37.49,37.49,0,0,1,35.48,25.41l54.54,160.33A37.47,37.47,0,0,1,412.36,671.47Z"/></g></g></svg>